<svg xmlns="http://www.w3.org/2000/svg" viewBox="0 0 64 64" xml:space="preserve"><path fill="#FAB400" d="M42 52c0-5.514 4.486-10 10-10V28a4 4 0 0 0-4-4H16a4 4 0 0 0-4 4v28a4 4 0 0 0 4 4h30.025C43.588 58.175 42 55.273 42 52z" /><path fill="#505050" d="M40 4H24a8 8 0 0 0-8 8v12h4V12a4 4 0 0 1 4-4h16a4 4 0 0 1 4 4v12h4V12a8 8 0 0 0-8-8z" /><path fill="#3C3C3C" d="M26 4h-2a8 8 0 0 0-8 8v12h2V12a8 8 0 0 1 8-8z" /><path fill="#DC9600" d="M16 56V28a4 4 0 0 1 4-4h-4a4 4 0 0 0-4 4v28a4 4 0 0 0 4 4h4a4 4 0 0 1-4-4z" /><circle fill="#3CC8B4" cx="52" cy="52" r="8" /><path fill="#1EAA96" d="M45.983 52c0-4.082 3.059-7.443 7.009-7.932A7.932 7.932 0 0 0 52 44a8 8 0 0 0 0 16c.336 0 .666-.027.991-.068-3.949-.489-7.008-3.85-7.008-7.932z" /><path fill="#F0F0F0" d="m57 50-6 6-4-4 2-2 2 2 4-4z" /><path fill="#BE7800" d="M38 38a6.007 6.007 0 0 0-7.295-5.864c-2.286.478-4.125 2.34-4.582 4.631A6.003 6.003 0 0 0 30 43.651V50a2 2 0 1 0 4 0v-6.349c2.329-.824 4-3.04 4-5.651z" /></svg>